<svg xmlns="http://www.w3.org/2000/svg" viewBox="0 0 512 512">
<path fill="#1b1f23" d="
M170 120
C120 120 90 150 90 200
C90 250 120 280 170 280
C180 280 200 270 215 255
L230 270
C210 300 180 320 150 320
C80 320 40 280 40 210
C40 140 90 90 170 90
C210 90 240 105 260 130
L230 160
C215 140 195 120 170 120
Z"/><path fill="#1b1f23" d="
M310 120
C260 120 230 150 230 200
C230 250 260 280 310 280
C340 280 360 270 380 250
L410 280
C380 310 350 320 310 320
C240 320 200 280 200 210
C200 140 240 90 310 90
C350 90 380 105 410 130
L380 160
C360 140 340 120 310 120
Z"/><polygon fill="#1b1f23" points="
110,80
210,80
160,50
"/><rect x="135" y="80" width="60" height="10" fill="#1b1f23"/>
<line x1="195" y1="90" x2="195" y2="110"
stroke="#1b1f23" stroke-width="4"/><path fill="#1b1f23" d="
M120 340
Q256 300 392 340
L370 360
Q256 330 142 360
Z"/><path fill="#1b1f23" d="
M150 350
Q256 320 362 350
"/></svg>